<svg width="31" height="31" viewBox="0 0 31 31" fill="none" xmlns="http://www.w3.org/2000/svg">
<path d="M30.5118 13.6412H3.3749C3.51639 12.5941 3.79563 11.575 4.21013 10.5969C4.81599 9.16715 5.68425 7.88205 6.79032 6.778C6.98416 6.5845 7.18362 6.39815 7.38838 6.2199C7.48593 6.3235 7.58503 6.42553 7.686 6.52633C8.91423 7.75232 10.3448 8.71484 11.9383 9.38772C13.5887 10.0842 15.3412 10.438 17.1465 10.438H29.8162C29.4307 9.28382 28.9109 8.19096 28.2751 7.17775C25.5709 2.86699 20.7705 0 15.2991 0C12.7288 0 10.3067 0.632443 8.1806 1.75018C7.20482 2.26317 6.29136 2.87819 5.45456 3.58125C2.51099 6.05347 0.514229 9.61388 0.0863281 13.6412C0.0292954 14.177 0 14.7204 0 15.2713C0 15.8222 0.0292954 16.3657 0.0863281 16.9015H27.223C27.0815 17.9486 26.8023 18.9677 26.3878 19.9458C25.7818 21.3755 24.9136 22.6607 23.8076 23.7644C23.6137 23.9579 23.4142 24.1442 23.2095 24.3227C23.1119 24.2192 23.0128 24.1169 22.9118 24.016C21.6836 22.7901 20.2531 21.8275 18.6596 21.1546C17.0091 20.4581 15.257 20.1044 13.4512 20.1044H0.781939C1.16745 21.2586 1.6873 22.3514 2.32307 23.3646C5.02729 27.6757 9.82765 30.5427 15.2991 30.5427C17.8689 30.5427 20.2912 29.9102 22.4173 28.7925C23.3931 28.2798 24.3068 27.6645 25.1436 26.9617C28.0872 24.4889 30.0839 20.9288 30.5118 16.9015C30.5689 16.3657 30.5982 15.8222 30.5982 15.2713C30.5982 14.7204 30.5689 14.177 30.5118 13.6412ZM10.6161 4.2028C12.0975 3.57752 13.6732 3.26021 15.2991 3.26021C16.925 3.26021 18.5004 3.5772 19.9817 4.2028C21.414 4.80756 22.7014 5.67425 23.8076 6.778C23.9385 6.90896 24.0662 7.04211 24.1905 7.17805H17.1465C14.4505 7.17805 11.9972 6.11942 10.182 4.3963C10.3254 4.32879 10.47 4.26441 10.6161 4.2028ZM19.9817 26.3399C18.5004 26.9652 16.925 27.2824 15.2991 27.2824C13.6732 27.2824 12.0975 26.9652 10.6161 26.3399C9.18381 25.7351 7.89637 24.8684 6.79032 23.7644C6.65941 23.6337 6.53164 23.5006 6.4076 23.3646H13.4512C16.1474 23.3646 18.6007 24.4233 20.4159 26.1463C20.2724 26.2139 20.1279 26.2782 19.9817 26.3399Z" fill="white"/>
</svg>
